<?xml version="1.0" standalone="no"?>
<!DOCTYPE svg PUBLIC "-//W3C//DTD SVG 20010904//EN"
 "http://www.w3.org/TR/2001/REC-SVG-20010904/DTD/svg10.dtd">
<svg version="1.0" xmlns="http://www.w3.org/2000/svg"
 width="1024.000000pt" height="1024.000000pt" viewBox="0 0 1024.000000 1024.000000"
 preserveAspectRatio="xMidYMid meet">
<g transform="translate(0.000000,1024.000000) scale(0.100000,-0.100000)"
fill="#aa6666" stroke="none">
<path d="M4845 9858 c-55 -4 -109 -13 -120 -18 -11 -5 -59 -14 -107 -20 -49
-7 -88 -15 -88 -19 0 -4 -30 -13 -67 -20 -37 -7 -72 -16 -78 -21 -5 -4 -30
-13 -55 -19 -45 -12 -65 -20 -150 -59 -25 -11 -62 -26 -82 -33 -21 -7 -38 -16
-38 -19 0 -4 -18 -13 -40 -20 -22 -7 -40 -17 -40 -21 0 -5 -15 -15 -32 -23
-46 -21 -84 -44 -151 -93 -31 -24 -59 -43 -62 -43 -31 0 -405 -366 -405 -396
0 -8 -4 -14 -8 -14 -29 0 -193 -298 -233 -425 -7 -22 -16 -44 -20 -50 -3 -5
-12 -39 -18 -75 -7 -36 -17 -75 -23 -87 -6 -12 -8 -28 -5 -36 3 -8 1 -19 -4
-24 -7 -7 -29 -267 -29 -345 0 -10 -7 -18 -15 -18 -8 0 -15 -4 -15 -9 0 -5 -8
-11 -17 -15 -10 -3 -45 -22 -78 -41 -33 -19 -71 -40 -85 -47 -14 -7 -51 -31
-83 -55 -31 -24 -60 -43 -62 -43 -3 0 -19 -13 -35 -30 -16 -16 -33 -30 -37
-30 -13 0 -193 -184 -193 -198 0 -6 -9 -17 -20 -24 -11 -7 -20 -18 -20 -24 0
-6 -6 -17 -14 -23 -19 -16 -113 -209 -121 -251 -4 -19 -11 -39 -15 -45 -32
-40 -37 -399 -7 -468 8 -17 21 -48 28 -67 7 -19 15 -37 18 -40 3 -3 12 -16 20
-30 8 -14 19 -32 24 -41 8 -13 3 -33 -21 -80 -17 -35 -37 -83 -44 -106 -7 -24
-16 -43 -19 -43 -4 0 -12 -30 -19 -67 -7 -38 -16 -73 -21 -79 -5 -6 -14 -65
-21 -131 -9 -95 -9 -147 0 -239 7 -65 17 -123 21 -128 5 -6 14 -31 21 -56 16
-61 57 -145 97 -197 18 -24 33 -47 33 -51 0 -10 103 -112 113 -112 4 0 35 -22
70 -48 59 -47 112 -75 187 -102 19 -7 49 -18 65 -25 17 -8 67 -19 112 -26 89
-14 93 -18 93 -87 0 -18 4 -40 9 -50 5 -9 15 -37 22 -62 7 -25 27 -66 46 -93
18 -26 33 -51 33 -55 0 -10 103 -112 113 -112 4 0 28 -15 54 -33 54 -38 118
-69 178 -87 22 -6 49 -16 60 -21 29 -13 135 -39 160 -39 12 0 25 -4 31 -9 5
-5 45 -15 89 -22 44 -7 82 -16 85 -20 3 -3 30 -12 60 -18 52 -11 86 -24 155
-59 17 -8 39 -20 51 -25 21 -11 84 -96 84 -114 0 -6 6 -13 12 -15 9 -3 13 -30
13 -85 0 -66 -4 -85 -19 -102 -24 -27 -31 -26 -58 4 -18 21 -31 25 -73 25 -63
0 -88 -21 -83 -71 4 -46 35 -61 121 -57 38 2 71 8 75 14 4 6 15 14 25 17 11 4
21 16 24 27 3 11 9 20 13 20 11 0 30 73 30 116 -1 115 -49 215 -152 316 -44
43 -86 78 -94 78 -8 0 -17 6 -20 14 -3 7 -23 19 -45 26 -21 7 -39 16 -39 20 0
4 -18 13 -40 20 -22 7 -40 16 -40 19 0 4 -21 13 -47 20 -27 8 -52 17 -58 21
-5 4 -32 13 -60 19 -27 7 -59 17 -70 22 -11 5 -53 16 -94 24 -41 9 -79 19 -85
24 -6 4 -26 11 -44 15 -85 16 -223 89 -271 143 -59 67 -64 74 -57 80 3 3 1 12
-5 19 -6 7 -13 37 -16 67 l-5 54 158 6 c154 6 258 18 299 37 25 11 86 30 95
30 4 0 38 -30 76 -68 38 -37 76 -71 85 -77 9 -5 57 -45 105 -87 49 -43 94 -78
101 -78 7 0 16 -6 20 -13 10 -16 98 -77 111 -77 5 0 12 -7 16 -15 3 -8 10 -15
16 -15 6 0 26 -11 44 -25 18 -14 38 -25 44 -25 7 0 12 -5 12 -10 0 -6 10 -14
23 -19 12 -5 37 -21 56 -35 19 -14 39 -26 43 -26 5 0 31 -16 58 -35 27 -19 52
-35 54 -35 3 0 25 -13 49 -30 25 -16 50 -30 56 -30 6 0 11 -5 11 -10 0 -6 12
-15 26 -21 15 -5 44 -23 64 -39 21 -17 42 -30 47 -30 5 0 27 -13 49 -30 21
-16 43 -30 47 -30 5 0 34 -17 65 -38 32 -22 69 -46 85 -56 15 -9 27 -20 27
-25 0 -25 -270 -281 -296 -281 -4 0 -28 -16 -54 -35 -26 -19 -53 -35 -59 -35
-6 0 -11 -4 -11 -8 0 -4 -17 -14 -37 -21 -21 -8 -40 -17 -43 -20 -7 -9 -57
-36 -120 -66 -30 -14 -77 -37 -105 -50 -27 -14 -70 -29 -94 -34 -55 -12 -73
-3 -186 89 -94 77 -185 140 -203 140 -6 0 -12 4 -12 9 0 5 -16 18 -34 28 -73
38 -163 82 -211 103 -27 12 -57 25 -65 29 -8 4 -46 16 -85 25 -38 10 -78 22
-87 26 -9 5 -56 14 -105 21 -48 6 -96 15 -105 20 -23 12 -401 12 -414 0 -5 -5
-51 -14 -102 -20 -51 -6 -101 -16 -110 -21 -9 -4 -50 -16 -90 -25 -40 -9 -85
-23 -100 -31 -15 -7 -34 -14 -42 -14 -9 0 -24 -6 -35 -13 -11 -7 -39 -19 -62
-27 -24 -7 -43 -17 -43 -21 0 -4 -15 -10 -32 -14 -18 -4 -55 -21 -83 -39 -27
-17 -65 -39 -85 -48 -39 -20 -57 -30 -117 -70 -23 -15 -44 -28 -47 -28 -20 0
-244 -220 -271 -265 -22 -38 -87 -167 -105 -210 -27 -63 -33 -106 -37 -252 -4
-127 -2 -182 12 -257 9 -53 21 -96 26 -96 5 0 9 -8 9 -17 0 -28 68 -156 111
-208 54 -65 128 -145 136 -145 3 0 26 -17 52 -39 51 -42 60 -48 182 -107 101
-50 146 -70 179 -79 14 -3 39 -13 55 -20 17 -7 48 -17 70 -20 22 -4 45 -11 50
-15 6 -4 44 -13 85 -20 41 -7 80 -16 85 -20 6 -4 60 -13 120 -19 61 -7 119
-17 130 -22 11 -5 40 -10 65 -11 l45 -3 8 -110 c4 -60 11 -112 16 -115 5 -3
14 -40 21 -82 7 -43 16 -78 20 -78 4 0 11 -17 15 -37 4 -21 13 -49 20 -63 7
-14 30 -60 51 -102 20 -43 43 -83 50 -89 8 -6 14 -18 14 -26 0 -7 7 -16 15
-19 8 -4 15 -13 15 -21 0 -19 236 -253 275 -273 17 -8 44 -24 60 -36 45 -33
241 -132 278 -140 17 -3 41 -12 52 -19 11 -7 38 -16 60 -20 22 -4 45 -11 51
-16 6 -5 58 -16 115 -25 57 -9 115 -21 128 -28 34 -16 629 -16 662 1 13 6 67
19 119 29 52 9 100 20 105 24 6 4 26 11 45 15 19 4 49 13 65 20 17 7 46 18 65
25 86 30 279 124 340 166 25 16 53 33 64 37 19 7 64 40 191 140 82 64 268 256
291 300 9 16 31 49 50 74 19 25 42 60 50 77 41 85 44 88 80 82 18 -4 45 -13
60 -21 15 -7 44 -17 66 -20 21 -4 38 -10 38 -15 0 -4 39 -13 88 -20 48 -7 92
-16 97 -20 47 -38 812 -38 860 0 6 4 42 13 80 20 39 7 75 16 80 20 6 4 28 11
50 14 22 4 60 17 85 28 66 30 101 44 140 59 19 7 37 16 40 19 3 4 24 14 47 23
24 9 65 33 93 52 27 19 53 35 56 35 3 0 33 20 65 45 33 25 61 45 64 45 9 0 44
32 155 143 117 117 150 154 150 164 0 3 10 20 23 37 21 30 108 199 123 241 4
11 6 24 5 29 -1 5 3 12 8 16 6 3 16 42 22 85 6 44 16 86 22 92 14 19 13 356
-2 361 -6 2 -11 17 -11 32 0 36 -20 132 -30 145 -4 6 -13 28 -20 50 -7 22 -16
45 -21 51 -5 6 -6 14 -2 17 3 4 2 7 -3 7 -6 0 -16 17 -23 38 -8 20 -17 39 -20
42 -11 9 -71 98 -71 106 0 11 -15 27 -146 158 -139 139 -157 156 -167 156 -4
0 -33 20 -65 45 -31 25 -61 45 -65 45 -4 0 -13 5 -20 10 -45 38 -293 165 -372
192 -22 7 -42 15 -45 18 -3 3 -25 12 -50 19 -25 7 -52 17 -61 21 -8 4 -42 13
-75 20 -32 7 -61 15 -64 19 -6 8 -211 41 -251 41 -14 0 -30 5 -37 12 -8 8 -99
13 -299 17 l-288 6 0 155 0 154 95 16 c52 8 100 18 105 21 6 4 44 14 85 23 41
9 89 23 105 31 17 7 47 16 68 20 20 4 37 11 37 15 0 4 14 10 31 14 28 5 88 31
209 90 19 9 58 30 85 46 28 16 61 34 74 40 26 12 114 78 146 110 12 11 25 20
31 20 11 0 234 222 234 233 0 4 22 36 50 71 27 35 47 66 43 70 -3 3 -1 6 5 6
7 0 12 5 12 11 0 6 8 23 18 37 10 15 24 46 32 70 7 23 16 42 20 42 4 0 13 28
20 63 7 34 17 67 22 74 20 25 32 251 20 370 -6 64 -15 119 -20 122 -4 3 -14
32 -21 64 -7 31 -16 57 -19 57 -4 0 -13 19 -20 42 -8 24 -29 64 -48 90 -19 27
-34 52 -34 58 0 5 -9 15 -20 22 -11 7 -20 18 -20 25 0 15 -155 157 -200 183
-64 36 -155 78 -195 90 -22 6 -49 15 -60 20 -29 13 -121 30 -160 30 -19 0 -37
5 -40 10 -8 12 -337 14 -351 2 -5 -5 -52 -14 -104 -21 -52 -7 -99 -17 -105
-21 -5 -4 -44 -13 -85 -20 -41 -7 -79 -16 -85 -21 -20 -14 -204 -32 -340 -32
-138 0 -288 15 -309 32 -6 4 -40 14 -76 21 -36 6 -69 15 -75 20 -5 4 -28 13
-50 20 -22 7 -44 16 -50 20 -5 4 -21 11 -35 15 -27 8 -104 43 -190 87 -30 15
-71 35 -90 45 -19 10 -54 30 -77 45 -23 16 -44 28 -48 28 -4 0 -26 14 -50 30
-24 17 -48 30 -54 30 -6 0 -11 4 -11 10 0 13 130 150 142 150 6 0 45 32 89 71
77 70 79 71 109 59 16 -7 30 -16 30 -21 0 -5 5 -9 11 -9 6 0 33 -16 59 -35 26
-19 51 -35 55 -35 4 0 26 -13 49 -28 46 -31 268 -142 284 -142 6 0 23 -6 39
-14 71 -35 121 -55 156 -61 20 -4 39 -11 42 -15 3 -5 31 -14 63 -20 31 -7 62
-16 67 -20 6 -5 48 -14 95 -20 47 -7 96 -17 109 -24 33 -15 592 -16 612 0 8 6
48 17 89 24 41 7 80 16 85 20 6 4 26 11 45 15 33 7 88 31 140 60 14 8 40 22
58 30 17 8 32 20 32 25 0 6 6 10 13 10 18 0 141 114 192 179 25 31 50 62 55
69 6 6 8 12 5 12 -4 0 3 12 14 26 12 15 21 33 21 40 0 8 4 14 8 14 4 0 14 17
21 38 7 20 19 51 27 69 16 35 31 202 20 229 -6 16 -8 16 -20 -2 -7 -10 -19
-52 -26 -91 -6 -40 -15 -73 -20 -73 -4 0 -11 -17 -15 -37 -4 -21 -19 -58 -33
-82 -36 -58 -111 -141 -129 -141 -7 0 -16 -6 -19 -14 -3 -7 -23 -19 -45 -26
-21 -7 -39 -16 -39 -20 0 -4 -28 -13 -62 -20 -35 -6 -73 -17 -86 -23 -28 -13
-307 -13 -324 0 -7 5 -46 15 -85 22 -40 7 -73 16 -73 21 0 4 -17 11 -37 15
-37 7 -280 127 -333 165 -15 11 -33 20 -39 20 -6 0 -11 5 -11 10 0 6 -5 10
-11 10 -6 0 -30 14 -54 30 -24 17 -48 30 -53 30 -5 0 -30 16 -55 35 -25 19
-49 35 -52 35 -4 0 -26 14 -50 30 -24 17 -48 30 -54 30 -6 0 -11 5 -11 10 0 6
-8 14 -17 17 -10 4 -37 20 -59 35 -23 15 -45 28 -48 28 -4 0 -24 11 -45 25
-93 62 -424 225 -456 225 -8 0 -15 4 -15 9 0 4 -21 14 -47 21 -27 7 -52 16
-58 20 -5 4 -32 13 -60 19 -27 7 -59 17 -70 21 -11 5 -47 14 -80 20 -33 6 -69
15 -80 20 -28 12 -134 28 -237 36 -49 4 -88 11 -88 15 0 13 -527 11 -535 -1
-3 -5 -27 -10 -53 -10 -66 0 -293 -28 -317 -39 -11 -5 -51 -15 -90 -22 -38 -6
-74 -15 -80 -19 -5 -4 -30 -11 -55 -15 -25 -4 -58 -13 -75 -20 -16 -8 -50 -19
-75 -25 -25 -7 -49 -15 -55 -20 -5 -4 -23 -10 -40 -14 -16 -4 -43 -14 -60 -21
-39 -18 -106 -45 -111 -45 -8 0 -3 201 5 218 5 9 14 62 20 117 6 54 15 102 20
105 5 3 14 31 21 63 7 31 17 57 22 57 4 0 8 8 8 18 0 9 19 55 43 102 56 111
64 124 117 195 25 33 44 64 42 68 -4 13 325 337 342 337 8 0 19 6 23 13 11 16
99 77 112 77 6 0 11 5 11 10 0 6 10 15 23 21 12 6 45 23 72 39 28 16 66 38 85
47 19 10 37 21 38 26 2 4 11 7 21 7 9 0 34 9 56 20 21 11 54 25 74 31 20 6 41
15 46 19 6 4 32 13 60 19 27 7 54 16 60 20 5 5 42 14 80 21 39 7 75 16 80 20
13 9 128 27 230 36 44 4 86 11 93 17 20 15 629 14 644 -1 7 -7 29 -12 49 -12
56 0 271 -29 294 -39 11 -5 50 -15 88 -21 37 -7 67 -15 67 -19 0 -4 28 -13 63
-20 34 -7 67 -16 72 -21 6 -4 28 -13 50 -20 22 -7 49 -19 60 -26 11 -6 35 -15
53 -19 17 -4 32 -11 32 -16 0 -5 5 -9 10 -9 11 0 161 -71 170 -80 16 -16 100
-70 109 -70 6 0 11 -5 11 -10 0 -6 8 -14 18 -17 60 -22 373 -328 406 -397 9
-20 21 -36 25 -36 4 0 14 -18 21 -40 7 -22 16 -40 20 -40 4 0 13 -19 20 -42 8
-24 19 -52 26 -63 6 -11 15 -38 19 -60 4 -22 11 -46 17 -52 6 -7 8 -24 6 -38
-3 -14 -1 -28 3 -31 11 -7 12 -271 1 -278 -5 -3 -7 -19 -4 -36 2 -16 0 -36 -5
-43 -6 -6 -13 -27 -17 -45 -3 -19 -12 -48 -20 -65 -8 -18 -22 -48 -30 -67 -28
-63 -174 -240 -198 -240 -4 0 -26 -13 -50 -29 -24 -16 -63 -34 -88 -41 -25 -7
-55 -17 -67 -23 -30 -14 -225 -14 -255 0 -13 6 -43 16 -68 23 -25 7 -57 21
-72 31 -14 11 -29 19 -33 19 -4 0 -33 21 -66 47 -52 41 -62 45 -83 35 -18 -8
-23 -16 -19 -31 3 -12 9 -21 14 -21 5 0 37 -23 71 -51 35 -28 70 -53 78 -57 8
-3 26 -13 40 -22 14 -9 45 -22 70 -29 25 -7 53 -17 62 -22 22 -11 231 -12 244
0 5 4 37 14 72 21 34 7 62 16 62 20 0 4 18 13 40 20 22 7 40 17 40 22 0 4 7 8
15 8 8 0 59 44 113 98 97 95 146 165 172 247 7 22 16 42 20 45 5 3 13 41 20
85 7 44 16 88 21 97 13 25 12 238 -1 238 -5 0 -10 13 -10 30 0 44 -23 170 -31
170 -4 0 -10 17 -14 37 -4 21 -12 47 -18 58 -6 11 -10 26 -9 33 2 6 -1 12 -6
12 -5 0 -15 18 -22 40 -7 22 -17 40 -22 40 -4 0 -8 5 -8 12 0 6 -10 25 -23 42
-13 17 -26 39 -30 49 -3 9 -11 17 -17 17 -5 0 -10 5 -10 11 0 25 -208 258
-266 299 -24 16 -139 111 -165 135 -9 8 -19 15 -23 15 -5 0 -31 16 -58 36 -49
37 -80 54 -183 107 -100 50 -160 76 -190 83 -16 4 -39 13 -50 20 -11 6 -36 15
-55 19 -19 3 -48 13 -65 20 -16 7 -51 16 -78 20 -26 4 -49 11 -52 15 -3 4 -44
13 -92 20 -49 7 -97 16 -108 21 -61 26 -620 38 -850 17z m-960 -1868 c3 -5 30
-10 60 -10 64 0 206 -19 220 -29 6 -4 37 -14 70 -21 33 -7 65 -17 70 -20 6 -4
28 -13 50 -20 39 -12 175 -72 205 -91 8 -5 42 -23 75 -40 33 -17 70 -36 82
-42 13 -7 23 -15 23 -19 0 -5 6 -8 13 -8 6 0 30 -14 51 -30 22 -17 43 -30 48
-30 5 0 32 -17 61 -39 29 -21 60 -41 70 -44 9 -4 17 -11 17 -17 0 -5 6 -10 13
-10 7 0 28 -13 47 -28 19 -16 43 -31 53 -35 26 -10 21 -21 -24 -47 -58 -36
-172 -122 -187 -142 -7 -10 -19 -18 -26 -18 -6 0 -28 -16 -47 -36 -28 -29 -39
-34 -63 -30 -16 4 -37 12 -45 20 -34 29 -196 114 -266 140 -27 10 -63 24 -80
31 -16 7 -45 16 -62 20 -18 4 -33 9 -33 11 0 2 12 15 28 28 15 13 47 42 72 63
25 22 67 56 94 76 27 20 47 37 44 37 -17 0 -90 -37 -131 -66 -26 -19 -50 -34
-53 -34 -4 0 -27 -18 -51 -41 -43 -39 -47 -41 -91 -34 -26 4 -53 12 -61 18
-19 16 -478 17 -489 2 -4 -6 -43 -17 -87 -24 -44 -7 -82 -17 -85 -21 -3 -4
-21 -11 -40 -15 -19 -4 -46 -13 -60 -21 -31 -16 -115 -44 -135 -44 -8 0 -17
11 -21 25 -3 14 -11 25 -17 25 -6 0 -7 3 -4 6 3 4 0 16 -8 28 -8 11 -15 27
-15 36 0 8 -6 27 -14 42 -8 15 -20 53 -26 85 -6 32 -16 66 -21 75 -4 9 -14 58
-21 108 -14 106 -11 111 82 131 30 7 60 15 65 19 6 4 42 13 80 19 39 7 79 16
90 21 30 13 191 30 278 30 45 0 77 4 77 10 0 6 26 10 59 10 33 0 63 -4 66 -10z
m-881 -186 c3 -9 6 -33 6 -54 0 -21 4 -41 8 -44 5 -3 7 -19 4 -37 -3 -17 0
-34 5 -38 5 -3 14 -40 21 -81 7 -41 16 -77 21 -80 5 -3 12 -21 16 -40 4 -19
18 -59 31 -88 13 -29 24 -56 24 -61 0 -4 -17 -15 -37 -24 -38 -16 -80 -40
-126 -70 -14 -9 -43 -26 -64 -38 -21 -12 -59 -39 -84 -60 -26 -22 -50 -39 -54
-39 -9 0 -17 -7 -177 -161 -70 -68 -126 -125 -123 -127 3 -3 -9 -18 -25 -34
-17 -15 -30 -31 -30 -34 0 -3 -20 -30 -45 -61 -25 -30 -45 -60 -45 -65 0 -6
-9 -3 -20 7 -11 10 -20 25 -20 34 0 9 -7 26 -15 37 -8 12 -12 24 -8 27 3 4 0
14 -8 23 -20 24 -20 344 0 368 7 8 11 22 8 31 -4 8 -2 17 2 19 5 3 11 24 15
46 6 37 28 91 61 150 8 14 22 41 31 60 17 37 255 280 274 280 6 0 16 5 23 10
28 24 87 58 167 96 146 71 154 73 164 48z m1015 -414 c74 -6 140 -15 147 -21
9 -7 -1 -23 -42 -63 -30 -29 -54 -56 -54 -59 0 -4 -27 -40 -60 -80 -33 -41
-60 -77 -60 -82 0 -4 -11 -22 -24 -40 -13 -17 -31 -47 -40 -66 -20 -43 -49
-92 -57 -99 -4 -3 -13 -23 -21 -45 -32 -85 -51 -125 -63 -125 -6 0 -39 23 -73
50 -34 28 -65 50 -69 50 -10 0 -183 173 -183 183 0 4 -24 38 -52 75 -58 73
-81 109 -104 160 -8 17 -19 32 -25 32 -27 0 15 29 50 35 21 3 50 12 65 20 14
8 66 21 114 30 48 9 96 21 107 26 18 8 174 24 275 28 19 0 95 -4 169 -9z m262
-51 c43 -14 69 -25 199 -88 127 -62 162 -82 173 -98 4 -7 13 -13 20 -13 17 -1
65 -40 49 -40 -7 0 -16 -8 -19 -17 -4 -10 -34 -49 -66 -88 -33 -38 -63 -80
-68 -92 -5 -13 -13 -23 -19 -23 -5 0 -10 -5 -10 -11 0 -6 -10 -24 -21 -41 -31
-43 -102 -185 -119 -238 -8 -25 -20 -56 -27 -70 -7 -14 -13 -35 -13 -46 0 -37
-25 -49 -62 -31 -18 8 -49 18 -68 22 -19 4 -39 11 -45 15 -5 4 -28 13 -50 20
-22 7 -56 21 -75 31 -19 11 -39 19 -44 19 -11 0 -119 52 -126 61 -3 3 -20 14
-37 23 -32 16 -42 42 -25 62 5 5 14 29 21 54 7 25 18 59 26 75 47 107 103 216
127 252 15 23 28 45 28 48 0 4 18 29 40 55 22 26 40 51 40 54 0 4 16 21 36 38
20 18 40 42 45 55 10 26 36 29 90 12z m-1087 -120 c-3 -5 -1 -9 4 -9 4 0 16
-15 26 -32 41 -78 48 -88 57 -88 5 0 9 -6 9 -13 0 -7 19 -37 43 -65 49 -61
232 -252 241 -252 4 0 40 -27 80 -61 60 -49 73 -64 69 -82 -6 -25 -42 -67 -56
-67 -6 0 -22 -11 -36 -25 -46 -43 -139 -115 -150 -115 -6 0 -11 -5 -11 -10 0
-6 -8 -14 -17 -17 -10 -4 -32 -17 -49 -30 -17 -13 -36 -23 -42 -23 -7 0 -12
-4 -12 -9 0 -11 -109 -45 -118 -37 -3 4 -1 10 5 14 6 4 14 45 18 92 l7 85 -21
-30 c-11 -16 -23 -49 -27 -72 -3 -24 -10 -45 -14 -48 -5 -3 -6 -14 -3 -25 9
-36 -13 -47 -105 -54 -96 -7 -311 9 -326 24 -6 6 -18 10 -27 10 -32 0 -124 34
-166 61 -22 15 -49 30 -60 33 -30 10 -139 114 -128 123 6 4 21 31 34 58 14 28
40 71 58 96 18 26 33 52 33 58 0 6 4 11 8 11 5 0 13 10 19 23 24 51 319 337
348 337 5 0 22 11 40 24 17 13 47 31 66 40 37 18 91 48 99 56 20 20 87 45 97
37 7 -5 10 -13 7 -18z m1680 -199 c4 0 20 -8 34 -19 27 -19 69 -43 132 -77 19
-11 38 -23 41 -27 3 -4 39 -25 80 -45 41 -21 83 -43 94 -49 58 -32 176 -84
215 -94 25 -7 50 -16 55 -20 6 -3 44 -12 85 -19 41 -7 81 -18 89 -24 20 -16
500 -15 532 1 13 6 62 17 109 23 47 7 90 16 96 21 7 5 67 17 135 25 68 9 134
21 146 27 31 14 378 14 395 0 7 -6 31 -14 53 -18 80 -13 215 -69 265 -109 8
-6 28 -18 44 -26 40 -20 226 -205 226 -225 0 -8 7 -18 15 -21 8 -4 15 -11 15
-16 0 -5 9 -23 20 -39 12 -15 28 -52 36 -81 9 -29 20 -57 24 -63 13 -16 30
-158 30 -248 0 -101 -18 -259 -29 -267 -5 -3 -12 -23 -16 -45 -4 -22 -12 -49
-18 -60 -6 -11 -10 -23 -9 -27 1 -5 -2 -8 -7 -8 -5 0 -12 -15 -15 -34 -4 -19
-21 -53 -40 -77 -18 -24 -41 -59 -50 -78 -22 -42 -226 -245 -269 -267 -17 -10
-54 -34 -82 -54 -27 -20 -72 -47 -100 -61 -27 -13 -52 -27 -55 -30 -3 -3 -22
-12 -42 -20 -21 -7 -38 -16 -38 -19 0 -4 -19 -13 -42 -20 -24 -8 -47 -17 -53
-20 -5 -4 -35 -15 -65 -25 -30 -9 -68 -23 -85 -30 -16 -7 -48 -16 -70 -20 -22
-4 -44 -10 -50 -15 -5 -4 -44 -13 -85 -20 -41 -7 -79 -16 -85 -20 -5 -4 -35
-11 -65 -14 -30 -4 -67 -9 -82 -12 l-28 -6 0 270 c0 226 -2 272 -15 282 -19
16 -45 6 -45 -18 0 -10 -2 -21 -5 -24 -4 -3 -7 -122 -8 -264 l-2 -259 -45 -7
c-25 -3 -118 -10 -208 -14 -89 -4 -165 -11 -168 -16 -7 -12 -142 -10 -149 2
-3 6 -37 10 -75 10 l-68 0 -4 41 c-2 22 0 43 4 45 11 7 10 374 0 374 -5 0 -7
14 -4 30 2 17 0 36 -6 43 -5 6 -15 42 -22 80 -7 37 -16 67 -21 67 -5 0 -9 8
-9 17 0 10 -19 55 -42 101 -41 82 -42 84 -24 110 9 15 20 35 23 45 3 9 9 17
14 17 5 0 9 6 9 14 0 22 65 86 87 86 10 0 24 5 30 11 6 6 57 11 114 12 98 2
106 0 146 -26 24 -15 46 -27 50 -27 3 0 20 -15 37 -33 17 -18 39 -36 48 -40 9
-3 25 -19 35 -34 32 -51 153 -152 222 -186 34 -17 131 -24 131 -9 0 4 19 13
43 20 24 7 67 31 95 53 29 21 56 39 60 39 4 0 36 28 70 63 100 101 128 170
111 277 -6 35 -13 67 -17 70 -4 3 -14 18 -22 34 -19 36 -121 129 -171 155 -55
29 -83 45 -89 51 -3 4 -25 12 -50 19 -25 7 -49 17 -55 21 -33 27 -292 40 -385
20 -48 -11 -47 -11 -160 -64 -106 -49 -226 -151 -311 -263 -29 -38 -121 -199
-120 -210 0 -2 -5 -16 -10 -33 -13 -37 -26 -38 -39 -4 -6 14 -21 40 -35 58
-14 18 -25 36 -25 40 0 4 -20 33 -45 65 -25 31 -45 60 -45 64 0 4 -6 15 -14
24 -66 81 -103 131 -109 146 -3 9 -11 17 -17 17 -5 0 -10 6 -10 13 -1 6 -14
28 -30 47 -17 19 -30 40 -30 47 0 7 -5 13 -10 13 -6 0 -15 10 -20 23 -5 12
-18 33 -27 46 l-17 24 34 -7 c76 -14 748 -19 892 -6 79 7 148 16 153 20 6 4
48 13 95 21 47 7 87 16 90 20 3 3 40 14 82 23 43 10 80 21 83 26 3 5 25 14 48
20 23 6 58 18 77 27 19 9 53 24 75 33 161 71 235 117 235 147 0 12 -8 14 -37
8 -21 -4 -51 -15 -68 -24 -16 -10 -50 -24 -75 -31 -25 -8 -54 -19 -65 -26 -11
-7 -37 -16 -57 -19 -21 -4 -38 -11 -38 -15 0 -4 -21 -13 -47 -20 -27 -7 -52
-16 -58 -20 -5 -4 -28 -11 -50 -15 -22 -3 -53 -13 -70 -20 -16 -8 -59 -19 -95
-25 -36 -7 -74 -16 -85 -20 -30 -13 -155 -30 -277 -37 -60 -3 -111 -10 -114
-15 -7 -11 -181 -11 -188 0 -3 5 -79 12 -168 15 -282 11 -440 33 -439 61 0 8
-27 77 -39 98 -5 9 -15 47 -21 85 -7 37 -16 72 -21 77 -11 13 -10 243 1 250 4
3 11 25 14 49 3 24 18 67 33 95 25 48 28 51 44 37 9 -8 20 -15 24 -15z m-1026
-451 c2 -5 9 -9 16 -9 7 0 27 -11 46 -25 19 -14 40 -25 48 -25 7 0 44 -14 80
-31 37 -18 82 -38 100 -45 17 -8 47 -21 65 -28 17 -8 51 -21 75 -29 l44 -14 2
-137 c1 -81 6 -140 12 -144 6 -4 16 -32 22 -62 11 -47 45 -122 130 -283 11
-21 32 -53 46 -72 14 -18 30 -45 36 -59 5 -14 14 -26 20 -26 5 0 10 -5 10 -12
0 -6 11 -26 25 -44 14 -18 25 -36 25 -41 0 -4 21 -35 45 -67 25 -33 45 -64 45
-68 0 -5 11 -24 25 -42 14 -18 25 -38 25 -44 0 -7 5 -12 10 -12 6 0 10 -5 10
-11 0 -6 13 -29 28 -52 40 -60 150 -286 158 -325 4 -17 11 -32 16 -32 6 0 8
-6 5 -14 -3 -7 -2 -17 3 -22 5 -5 12 -26 15 -46 6 -31 4 -38 -8 -38 -9 0 -18
4 -21 9 -3 5 -23 12 -43 16 -21 4 -51 13 -68 20 -16 8 -50 20 -75 28 -25 8
-59 22 -75 30 -17 8 -59 29 -95 46 -36 18 -83 43 -105 56 -22 13 -51 30 -65
37 -14 7 -31 21 -38 30 -7 10 -18 18 -24 18 -31 0 -299 255 -345 328 -10 15
-23 31 -30 35 -7 4 -13 13 -13 18 0 6 -13 29 -28 52 -16 23 -50 87 -76 142
-62 130 -63 132 -77 185 -6 25 -15 50 -19 55 -5 6 -14 48 -21 95 -7 47 -18 88
-23 92 -17 11 -15 503 2 519 6 7 12 26 12 42 0 25 3 27 23 21 12 -3 24 -11 25
-15z m-138 -118 c0 -6 -4 -13 -10 -16 -13 -8 -14 -429 -1 -453 5 -9 14 -60 21
-112 6 -52 15 -99 19 -105 5 -5 11 -22 13 -38 5 -25 3 -27 -16 -20 -11 5 -79
8 -151 8 l-130 0 -83 -41 c-56 -28 -85 -37 -91 -30 -4 6 -14 34 -20 61 -7 28
-17 59 -22 70 -27 62 -38 321 -16 385 10 30 19 36 62 48 28 8 52 18 55 22 3 4
23 13 45 21 22 8 55 24 74 37 19 12 38 22 44 22 5 0 40 25 78 55 37 30 73 55
78 55 6 0 15 9 21 20 11 21 30 27 30 11z m-1179 -184 c47 -24 108 -49 135 -56
27 -7 60 -18 73 -24 35 -17 386 -16 402 1 7 6 17 12 21 12 11 0 -2 -132 -13
-144 -12 -14 -11 -113 1 -121 6 -3 10 -21 10 -40 0 -43 18 -133 32 -162 6 -13
8 -26 5 -30 -4 -3 -3 -11 3 -18 16 -20 24 -95 10 -95 -13 0 -130 -113 -130
-125 0 -4 -13 -24 -29 -44 -40 -52 -93 -168 -99 -218 -2 -24 -9 -43 -13 -43
-5 0 -9 -21 -9 -46 l0 -46 -42 7 c-24 4 -55 13 -70 20 -15 7 -42 17 -60 20
-29 7 -114 49 -128 65 -3 3 -18 12 -34 20 -30 15 -186 175 -186 191 0 5 -18
35 -40 66 -22 32 -40 63 -40 70 0 6 -5 24 -12 40 -6 15 -12 30 -12 33 -1 3 -4
10 -8 15 -3 6 -9 28 -13 50 -4 22 -10 44 -13 50 -4 5 -5 22 -3 37 1 14 -2 29
-8 33 -13 8 -15 296 -2 311 4 5 14 50 20 99 7 50 19 104 26 120 7 17 16 45 20
62 l7 33 56 -50 c32 -27 96 -69 143 -93z m1104 -627 c3 -5 19 -10 34 -10 35 0
92 -19 109 -37 7 -7 18 -13 23 -13 5 0 9 -6 9 -12 0 -7 6 -25 14 -39 13 -25
10 -33 -33 -120 -36 -75 -63 -111 -127 -176 -44 -46 -88 -83 -97 -83 -9 0 -42
31 -73 68 -59 72 -71 91 -104 160 -12 23 -25 42 -30 42 -4 0 -12 15 -16 33 -3
17 -15 48 -25 67 -11 19 -19 37 -19 41 0 3 18 12 40 19 22 7 40 16 40 20 0 9
103 30 146 30 18 0 36 5 39 10 3 6 19 10 35 10 16 0 32 -4 35 -10z m-361 -160
c8 -14 30 -59 50 -100 49 -100 71 -137 112 -187 19 -23 34 -46 34 -52 0 -5 7
-14 16 -19 12 -7 13 -10 2 -19 -16 -12 -118 -33 -163 -33 -17 0 -35 -4 -40 -9
-14 -12 -292 -23 -300 -12 -3 5 -1 12 4 15 4 3 11 29 15 58 4 28 10 57 14 62
3 6 7 16 7 21 1 20 77 165 86 165 5 0 12 8 16 18 9 27 106 123 121 120 7 -2
19 -14 26 -28z m654 -117 c5 -16 28 -51 51 -80 22 -29 41 -56 41 -60 0 -26
297 -321 352 -349 15 -8 28 -19 28 -24 0 -6 5 -10 11 -10 6 0 23 -9 38 -19 73
-52 300 -163 406 -199 17 -6 39 -14 50 -18 11 -4 49 -15 84 -25 35 -9 68 -22
74 -28 17 -17 14 -236 -3 -256 -7 -8 -10 -18 -7 -22 4 -3 0 -15 -8 -27 -8 -11
-15 -27 -15 -36 -1 -20 -35 -60 -51 -60 -7 0 -36 18 -65 40 -29 22 -57 40 -61
40 -4 0 -26 14 -47 30 -22 17 -46 30 -53 30 -7 0 -13 4 -13 9 0 6 -11 16 -24
23 -13 7 -43 24 -66 36 -24 13 -65 39 -91 58 -27 19 -53 34 -57 34 -5 0 -33
18 -62 40 -29 22 -58 40 -62 40 -5 0 -24 11 -42 25 -18 14 -37 25 -43 25 -5 0
-34 18 -63 40 -29 22 -57 40 -62 40 -5 0 -33 18 -63 40 -30 22 -59 40 -64 40
-6 0 -16 9 -23 20 -7 11 -18 20 -23 20 -6 0 -26 13 -45 30 -19 16 -41 29 -47
30 -7 0 -13 4 -13 9 0 5 -15 18 -32 28 -18 11 -58 43 -89 71 -31 29 -59 52
-62 52 -2 0 -25 20 -49 45 -49 49 -48 56 14 83 47 20 186 160 210 213 13 26
26 48 30 49 3 0 10 -12 16 -27z m2362 -1008 c0 -132 -2 -145 -19 -155 -11 -5
-30 -10 -43 -10 -13 0 -28 -4 -33 -9 -6 -4 -39 -14 -75 -21 -36 -6 -78 -18
-95 -25 -16 -8 -50 -19 -74 -25 -24 -6 -54 -17 -65 -25 -12 -7 -34 -16 -51
-20 -16 -3 -32 -10 -35 -13 -3 -4 -34 -22 -70 -40 -110 -57 -153 -82 -197
-118 -23 -19 -46 -34 -51 -34 -5 0 -17 -11 -26 -25 -28 -42 -53 -31 -166 70
-58 52 -111 95 -117 95 -7 0 -13 2 -13 4 0 2 -3 11 -6 20 -4 10 21 42 76 98
101 102 179 193 191 225 4 12 12 23 17 23 5 0 15 18 22 40 7 22 17 40 22 40 4
0 8 7 8 15 0 17 55 21 65 5 8 -13 449 -13 473 -1 9 6 67 14 127 19 61 5 116 9
123 10 9 2 12 -33 12 -143z m639 -305 c9 -5 65 -13 126 -20 60 -6 114 -15 120
-20 5 -4 43 -13 82 -20 40 -6 75 -15 78 -20 3 -4 36 -16 75 -25 39 -9 73 -21
76 -26 3 -5 12 -9 20 -9 8 0 33 -9 57 -19 23 -11 58 -27 77 -35 35 -15 90 -46
100 -56 3 -3 16 -11 30 -18 64 -33 115 -65 154 -97 24 -19 47 -35 52 -35 5 0
24 -16 41 -35 18 -19 36 -35 40 -35 10 0 163 -152 163 -163 0 -4 14 -21 30
-37 17 -16 30 -32 30 -36 0 -4 11 -21 24 -38 29 -38 116 -202 116 -219 0 -7 6
-24 14 -39 8 -15 20 -53 26 -85 6 -32 17 -67 23 -78 12 -24 23 -316 12 -342
-4 -10 -7 -30 -6 -45 2 -16 -2 -28 -7 -28 -6 0 -13 -24 -17 -52 -4 -29 -13
-64 -20 -78 -8 -14 -28 -56 -46 -95 -18 -38 -47 -89 -66 -112 -18 -23 -33 -46
-33 -53 0 -13 -227 -240 -240 -240 -6 0 -36 -20 -68 -45 -31 -25 -63 -45 -69
-45 -7 0 -13 -4 -13 -9 0 -5 -17 -18 -37 -29 -21 -10 -72 -37 -113 -59 -41
-22 -100 -48 -130 -58 -30 -10 -57 -21 -60 -25 -3 -4 -30 -13 -60 -19 -30 -7
-69 -19 -86 -27 -17 -7 -56 -16 -87 -20 -32 -4 -57 -10 -57 -14 0 -9 -197 -30
-282 -30 -37 0 -70 -4 -73 -10 -8 -13 -162 -13 -170 0 -3 5 -41 10 -85 10 -96
0 -278 17 -305 29 -11 5 -56 14 -100 21 -44 7 -82 16 -85 21 -3 4 -24 11 -48
15 -23 3 -50 12 -59 20 -17 12 -17 14 0 42 9 17 17 36 17 44 0 7 7 26 15 42 8
15 13 32 10 36 -3 5 -1 11 4 14 5 3 14 39 21 79 6 39 17 83 23 96 17 33 17
552 0 572 -6 8 -14 41 -18 74 -4 33 -12 71 -18 85 -6 14 -9 31 -8 38 1 8 -2
19 -7 25 -5 7 -13 28 -17 47 -7 35 -30 92 -65 160 -9 19 -21 50 -25 68 -3 17
-10 32 -14 32 -3 0 -12 12 -19 28 -7 15 -25 48 -40 74 -15 25 -36 61 -46 79
-10 19 -36 57 -58 85 -21 28 -38 54 -38 58 0 9 -146 180 -184 215 -14 14 -26
29 -26 35 0 6 -28 39 -62 73 -34 35 -57 63 -50 63 8 0 33 14 57 30 24 17 48
30 54 30 6 0 11 4 11 8 0 5 18 15 40 22 22 7 40 16 40 20 0 4 19 13 43 20 23
8 51 20 62 27 11 7 26 13 35 13 8 0 26 6 40 13 14 7 59 22 100 32 41 10 80 22
85 26 6 4 48 13 95 20 47 7 88 17 91 22 3 5 19 7 35 5 l29 -3 5 -447 c5 -469
7 -487 48 -462 13 8 18 28 20 77 3 65 4 67 50 107 26 22 53 40 60 40 6 0 12 4
12 9 0 5 21 14 47 21 26 6 53 16 59 21 23 19 231 31 347 19 61 -6 116 -15 122
-20 5 -4 28 -11 50 -15 22 -4 51 -13 65 -20 14 -8 45 -21 70 -30 25 -9 66 -32
93 -51 26 -19 50 -34 54 -34 12 0 103 -93 103 -106 0 -6 7 -17 15 -24 9 -8 15
-30 15 -59 0 -26 5 -52 11 -58 7 -7 2 -17 -20 -32 -17 -13 -31 -29 -31 -37 0
-8 -4 -14 -10 -14 -5 0 -10 -10 -10 -22 0 -24 46 -58 78 -58 9 0 23 -4 31 -9
11 -7 10 -12 -8 -27 -26 -23 -27 -48 -1 -83 16 -24 18 -33 8 -64 -6 -21 -15
-37 -20 -37 -4 0 -8 -6 -8 -13 0 -14 -52 -88 -85 -122 -34 -33 -108 -85 -122
-85 -7 0 -13 -4 -13 -8 0 -5 -18 -15 -40 -22 -22 -7 -40 -16 -40 -20 0 -4 -28
-13 -62 -20 -35 -7 -66 -17 -69 -22 -9 -13 -242 -15 -270 -2 -13 6 -42 17 -64
24 -21 7 -47 22 -56 34 -16 20 -16 22 17 58 39 44 43 72 12 105 -18 19 -32 23
-84 23 -56 0 -65 -3 -83 -26 -55 -70 0 -189 115 -250 60 -32 131 -44 258 -44
178 0 235 15 404 103 58 31 194 175 230 245 17 35 32 69 32 76 0 7 16 27 35
46 24 23 35 43 35 62 0 15 -4 28 -9 28 -5 0 -11 9 -14 20 -3 13 0 20 10 20 26
0 73 56 73 87 0 34 -33 70 -70 75 -23 3 -25 8 -25 50 -1 50 -14 73 -48 84 -24
7 -77 57 -77 72 0 5 -22 29 -49 53 -83 75 -79 72 -169 120 -18 9 -38 22 -45
27 -7 5 -30 15 -52 22 -22 7 -49 19 -60 25 -11 7 -42 16 -70 20 -27 4 -53 12
-57 18 -10 16 -416 17 -426 1 -4 -6 -24 -14 -44 -18 -45 -8 -149 -58 -168 -80
-7 -9 -16 -16 -21 -16 -5 0 -8 151 -7 353 l3 352 80 6 c101 8 463 0 484 -11z
m-1785 -125 c26 -19 49 -35 53 -35 3 0 19 -13 35 -30 15 -16 32 -30 36 -30 4
0 27 -20 51 -44 l44 -45 -36 -38 c-43 -45 -117 -138 -117 -148 0 -3 -13 -26
-30 -50 -16 -24 -30 -48 -30 -54 0 -6 -4 -11 -9 -11 -5 0 -12 -15 -15 -32 -3
-18 -12 -45 -20 -59 -7 -15 -19 -51 -27 -80 -7 -30 -16 -58 -21 -63 -4 -6 -8
-23 -8 -39 0 -24 -3 -28 -17 -22 -10 3 -31 9 -48 12 -16 4 -32 10 -35 14 -3 5
-42 14 -85 20 -44 6 -88 15 -97 20 -23 12 -333 12 -356 0 -9 -5 -55 -14 -101
-20 -46 -6 -89 -15 -95 -19 -6 -5 -26 -12 -44 -16 -68 -12 -295 -125 -371
-183 -129 -99 -233 -192 -226 -203 3 -5 -8 -20 -25 -33 -16 -14 -30 -29 -30
-33 0 -4 -10 -21 -23 -38 -35 -48 -105 -197 -113 -241 -3 -22 -9 -44 -12 -50
-3 -5 -5 -26 -3 -46 1 -20 -2 -40 -8 -44 -15 -8 -15 -182 0 -190 6 -4 9 -19 8
-33 -1 -15 1 -34 4 -42 13 -35 29 -122 23 -127 -3 -4 -68 -8 -144 -11 -75 -2
-141 -8 -146 -13 -14 -12 -193 -11 -201 1 -3 5 -42 10 -86 10 l-79 0 0 34 c0
61 21 185 35 213 8 16 15 33 15 39 0 6 27 14 61 18 34 3 67 10 73 15 6 5 25
12 43 15 113 25 198 164 142 233 -13 15 -125 18 -134 3 -3 -5 -13 -10 -21 -10
-42 0 -179 -137 -198 -197 -6 -20 -14 -23 -54 -23 -79 1 -245 19 -251 28 -3 5
-21 12 -39 15 -30 6 -110 42 -184 83 -16 8 -28 19 -28 25 0 5 -7 9 -15 9 -19
0 -165 146 -165 164 0 8 -7 16 -14 19 -8 3 -18 22 -22 41 -3 20 -10 36 -14 36
-5 0 -14 33 -21 73 -12 74 -2 212 18 226 5 3 15 22 23 41 21 52 161 180 197
180 7 0 13 4 13 8 0 5 19 15 43 22 23 7 52 17 64 23 30 13 216 14 245 0 13 -6
43 -16 68 -23 77 -21 224 -151 256 -226 14 -33 41 -60 50 -51 11 11 -7 98 -22
104 -8 3 -14 10 -14 17 0 6 -13 27 -30 46 -16 19 -29 38 -30 42 -1 21 -122
117 -147 118 -7 0 -13 4 -13 9 0 4 -21 14 -47 20 -27 7 -56 17 -65 22 -22 11
-245 12 -252 0 -3 -4 -23 -11 -45 -15 -50 -8 -141 -56 -209 -109 -53 -43 -112
-108 -112 -125 0 -6 -6 -12 -13 -15 -8 -3 -20 -27 -27 -54 -7 -26 -17 -52 -21
-58 -11 -12 -12 -225 -1 -225 4 0 14 -28 21 -62 7 -35 23 -80 37 -100 13 -21
24 -42 24 -48 0 -13 157 -170 170 -170 5 0 31 -15 57 -34 27 -19 68 -42 93
-51 25 -10 59 -23 76 -31 17 -7 56 -16 87 -20 32 -4 57 -11 57 -15 0 -5 47 -9
105 -9 l105 0 -6 -27 c-4 -16 -10 -32 -14 -38 -5 -5 -11 -37 -14 -70 -4 -33
-9 -73 -11 -90 l-5 -30 -67 3 c-38 1 -77 7 -88 12 -11 4 -74 14 -140 20 -66 7
-125 16 -130 20 -6 5 -42 14 -80 21 -39 6 -72 15 -75 18 -3 4 -36 15 -73 25
-71 19 -239 100 -294 142 -17 13 -36 24 -41 24 -16 0 -192 171 -192 186 0 8
-7 17 -15 21 -9 3 -22 20 -31 37 -8 17 -26 50 -39 74 -13 23 -22 42 -18 42 3
0 1 6 -5 13 -6 6 -16 40 -23 75 -7 34 -17 62 -21 62 -11 0 -10 257 1 264 4 3
11 23 15 45 3 22 11 52 18 68 6 15 11 31 10 36 -1 4 3 7 8 7 6 0 10 5 10 11 0
16 62 109 72 109 5 0 11 8 15 18 7 20 63 82 75 82 5 0 21 12 37 28 15 15 36
33 47 40 10 7 33 21 49 32 17 10 35 22 40 27 19 15 143 73 157 73 7 0 22 6 33
14 11 7 54 19 95 26 41 7 81 18 89 24 19 15 439 12 454 -3 6 -6 25 -11 41 -11
43 0 190 -22 196 -30 3 -3 32 -12 65 -19 63 -13 208 -79 261 -118 17 -13 36
-23 41 -23 6 0 13 -7 17 -15 3 -8 12 -15 20 -15 23 0 173 -152 191 -195 24
-54 23 -63 -10 -115 -35 -54 -60 -96 -75 -130 -7 -14 -16 -33 -21 -42 -13 -26
-11 -48 6 -54 20 -8 42 11 64 55 9 20 24 47 32 59 15 26 187 202 197 202 3 0
20 11 38 25 18 14 37 25 43 25 5 0 14 6 18 13 4 7 24 19 43 27 19 8 37 16 40
19 7 8 88 46 130 61 41 15 84 34 200 89 47 22 98 43 113 46 15 4 27 10 27 14
0 5 18 14 40 21 22 7 40 17 40 22 0 4 5 8 10 8 11 0 161 71 170 80 8 8 62 39
105 61 60 30 95 51 148 87 26 17 51 32 54 32 3 0 29 17 57 38 28 21 62 45 76
52 14 7 45 30 70 50 73 60 84 61 144 15z m357 -335 c37 -38 66 -70 63 -70 -3
0 22 -31 55 -68 34 -38 61 -72 61 -75 0 -4 7 -15 16 -24 33 -37 104 -136 104
-145 0 -5 11 -24 25 -42 14 -18 25 -38 25 -44 0 -6 3 -12 8 -14 9 -4 87 -161
84 -170 -1 -5 2 -8 7 -8 5 0 12 -15 16 -32 4 -18 13 -42 20 -54 7 -11 19 -41
25 -65 6 -24 18 -58 25 -75 8 -17 17 -56 21 -87 4 -32 10 -57 14 -57 9 0 30
-182 30 -265 0 -37 4 -65 10 -65 6 0 10 -13 10 -29 0 -17 -4 -33 -10 -36 -5
-3 -10 -39 -10 -78 0 -84 -19 -248 -30 -262 -4 -5 -13 -40 -20 -77 -7 -38 -15
-68 -19 -68 -4 0 -13 -21 -20 -46 -13 -44 -15 -46 -47 -40 -60 12 -334 165
-334 188 0 4 -7 8 -15 8 -19 0 -227 208 -220 220 3 4 2 10 -2 12 -12 5 -63 83
-63 96 0 6 -6 15 -14 19 -7 4 -17 22 -23 38 -16 49 -38 38 -37 -18 0 -27 5
-52 10 -55 5 -4 14 -18 21 -32 6 -14 29 -46 52 -72 22 -25 41 -50 41 -54 0
-14 163 -174 177 -174 7 0 18 -9 25 -20 7 -11 17 -20 22 -20 5 0 23 -10 40
-23 17 -13 39 -26 49 -30 9 -3 17 -10 17 -15 0 -5 18 -15 40 -22 22 -7 40 -16
40 -20 0 -9 86 -51 143 -71 41 -14 44 -24 22 -55 -8 -12 -11 -24 -8 -28 3 -3
1 -6 -5 -6 -7 0 -12 -5 -12 -12 0 -6 -11 -26 -25 -44 -14 -18 -25 -37 -25 -43
0 -6 -9 -15 -20 -21 -11 -6 -20 -17 -20 -24 0 -28 -315 -336 -344 -336 -3 0
-25 -12 -49 -27 -60 -38 -258 -139 -304 -153 -21 -7 -47 -19 -58 -25 -11 -7
-42 -18 -70 -24 -27 -7 -54 -16 -60 -20 -5 -5 -41 -14 -80 -21 -38 -8 -75 -17
-81 -22 -6 -4 -58 -13 -115 -20 -57 -6 -107 -16 -111 -22 -10 -14 -501 -12
-506 2 -2 7 -20 12 -40 12 -52 0 -206 22 -212 30 -3 4 -35 13 -73 20 -37 7
-69 16 -72 20 -3 4 -29 14 -57 20 -29 7 -64 18 -78 25 -14 7 -59 29 -100 49
-89 44 -126 65 -219 129 -79 54 -251 221 -251 243 0 8 -7 17 -15 20 -8 4 -15
11 -15 17 0 5 -10 24 -22 41 -20 27 -36 58 -94 178 -7 15 -18 56 -25 90 -6 35
-15 68 -19 73 -4 6 -11 35 -14 65 -4 30 -9 71 -12 90 l-5 35 263 0 c145 0 301
2 347 5 l84 5 31 -57 c42 -77 105 -168 117 -168 5 0 9 -5 9 -12 0 -14 60 -78
72 -78 5 0 22 -14 38 -30 16 -17 32 -30 36 -30 4 0 21 -10 38 -23 47 -35 216
-115 261 -123 22 -3 46 -12 54 -18 19 -15 403 -15 422 0 8 6 29 14 48 18 79
15 197 90 273 175 44 49 88 126 88 155 0 8 6 16 12 18 17 6 18 236 2 246 -6 4
-14 17 -18 29 -4 12 -25 38 -46 57 -37 33 -45 36 -101 36 -80 0 -109 -24 -109
-91 0 -25 5 -50 12 -57 7 -7 9 -12 4 -12 -4 0 0 -7 9 -16 10 -10 45 -20 91
-25 41 -4 79 -11 85 -15 15 -9 6 -148 -9 -167 -7 -8 -10 -16 -7 -19 3 -3 -1
-11 -10 -18 -8 -7 -15 -17 -15 -23 0 -15 -91 -107 -106 -107 -7 0 -14 -7 -18
-15 -3 -8 -12 -15 -19 -15 -8 0 -25 -8 -38 -18 -13 -10 -44 -24 -69 -32 -25
-8 -47 -17 -50 -21 -3 -4 -48 -12 -101 -18 -104 -12 -301 1 -307 19 -2 6 -11
10 -21 10 -20 0 -113 30 -121 39 -5 6 -28 20 -102 60 -40 23 -198 176 -198
193 0 6 -6 16 -14 22 -8 6 -33 46 -55 88 l-40 76 40 7 c21 4 39 10 39 14 0 4
29 13 65 20 36 7 65 17 65 21 0 4 14 10 30 14 17 3 56 17 88 32 31 14 81 37
110 50 29 13 57 24 62 24 6 0 10 4 10 8 0 5 18 15 40 22 22 7 40 17 40 22 0 5
11 13 25 18 28 11 88 51 93 63 2 4 9 7 15 7 7 0 40 23 74 50 34 28 66 50 71
50 6 0 24 16 41 35 17 19 34 35 38 35 5 0 52 44 106 98 88 88 98 101 92 125
-4 15 -11 27 -15 27 -5 0 -35 -30 -67 -66 -68 -78 -272 -264 -290 -264 -7 0
-16 -6 -20 -12 -11 -17 -99 -78 -112 -78 -6 0 -11 -3 -11 -7 0 -5 -10 -13 -23
-19 -12 -7 -67 -35 -122 -63 -55 -28 -125 -59 -155 -68 -30 -9 -64 -21 -75
-28 -11 -7 -38 -16 -60 -20 -22 -4 -44 -10 -50 -14 -10 -8 -116 -31 -141 -31
-34 0 -64 135 -64 292 0 110 17 250 31 259 6 3 9 10 8 15 -3 13 7 38 47 119
50 101 61 117 78 127 9 5 16 15 16 23 0 14 177 185 192 185 5 0 24 11 41 24
46 34 159 93 196 101 17 4 44 13 59 20 15 7 63 19 107 25 44 7 90 17 102 23
29 13 358 14 375 0 7 -5 42 -16 77 -22 56 -11 80 -20 171 -64 23 -12 25 -19
32 -112 6 -103 31 -173 71 -203 9 -7 17 -20 17 -28 0 -8 11 -19 25 -24 14 -5
25 -13 25 -18 0 -16 51 -32 105 -32 46 0 56 4 75 28 20 24 22 36 18 111 -3 52
-9 86 -16 89 -7 2 -12 9 -12 15 -1 28 -87 137 -108 137 -5 0 -15 7 -22 15 -16
20 -98 75 -111 75 -5 0 -9 11 -9 25 0 14 3 25 8 25 4 0 13 35 20 77 6 42 15
79 19 82 5 3 26 41 48 84 22 43 45 83 52 89 7 6 13 15 13 20 0 15 121 138 145
148 33 14 34 13 106 -60z m-343 -613 c77 -79 104 -164 62 -202 -17 -15 -24
-16 -45 -7 -14 6 -25 18 -25 27 0 8 -4 15 -8 15 -12 0 -32 70 -32 108 0 17 -4
34 -10 37 -15 9 -12 65 3 65 7 0 32 -19 55 -43z m-2110 -603 c2 -1 1 -16 -3
-33 -6 -27 -18 -37 -89 -71 -82 -40 -126 -50 -126 -29 0 16 101 119 116 119 8
0 14 4 14 9 0 17 71 21 88 5z"/>
<path d="M5046 9118 c-18 -18 -37 -42 -43 -52 -10 -18 -15 -19 -65 -7 -77 19
-100 13 -121 -31 -17 -37 -48 -51 -62 -28 -3 6 -30 10 -58 10 -47 0 -57 -4
-97 -40 -24 -22 -50 -40 -57 -40 -7 0 -13 -4 -13 -8 0 -5 -18 -15 -40 -22 -22
-7 -40 -16 -40 -19 0 -4 -12 -12 -27 -18 -32 -14 -105 -56 -145 -84 -14 -11
-31 -19 -36 -19 -5 0 -12 -7 -16 -15 -3 -8 -11 -15 -18 -15 -7 0 -33 -18 -58
-40 -25 -22 -36 -37 -25 -33 11 4 22 9 25 12 8 9 55 34 220 116 239 118 219
110 241 97 10 -7 40 -12 66 -12 52 1 85 21 97 57 12 39 32 47 70 29 47 -22 99
-21 121 4 17 19 19 19 37 3 10 -9 16 -18 14 -21 -3 -2 0 -10 7 -16 24 -23 69
-36 123 -36 48 0 60 4 85 29 16 16 29 37 29 45 0 24 62 21 85 -4 21 -24 71
-26 95 -5 24 22 61 1 85 -47 l18 -38 68 0 c60 0 130 -19 149 -41 3 -3 21 -11
40 -19 19 -8 39 -20 43 -27 4 -7 13 -13 18 -13 6 0 38 -20 70 -45 33 -25 63
-45 67 -45 4 0 63 -52 132 -115 116 -108 140 -126 140 -107 -1 17 -59 91 -112
142 -69 66 -177 158 -203 173 -11 5 -23 14 -26 19 -6 9 -52 36 -106 63 -18 8
-33 19 -33 24 0 4 -18 14 -40 21 -22 7 -40 16 -40 20 0 4 -9 10 -20 13 -11 3
-23 13 -27 23 -17 45 -81 72 -109 44 -12 -12 -94 27 -94 45 0 30 -92 33 -119
3 -18 -18 -22 -19 -38 -7 -10 8 -25 23 -33 34 -46 63 -66 75 -130 75 -57 0
-65 -3 -94 -32z"/>
</g>
</svg>
